<?xml version="1.0" encoding="UTF-8"?>
<svg id="Layer_2" data-name="Layer 2" xmlns="http://www.w3.org/2000/svg" viewBox="0 0 1513.64 1513.64">
  <defs>
    <style>
      .cls-1 {
        fill: #89ff55;
      }
    </style>
  </defs>
  <g id="Layer_1-2" data-name="Layer 1">
    <g>
      <rect class="cls-1" width="1513.64" height="1513.64"/>
      <g>
        <path d="m769.63,852.83c-1.78-5.69-3.99-11.36-6.66-16.95-24.96-52.44-83.93-81.57-140.71-69.35-74.99,16.14-117.63,92.85-94.36,163.77,10.5,31.99,32.49,56.98,59.9,71.9,30.78,16.75,50.19,47.88,52.32,82.86,1.1,18.12,5.33,36.46,13.04,54.32,30.99,71.8,111.42,110.93,187.1,91.23,90.35-23.53,140.85-117.82,112.19-205.17-17.6-53.64-60.81-91.69-111.62-105.07-33.7-8.87-60.8-34.28-71.21-67.53Z"/>
        <circle cx="874.38" cy="577.71" r="117.71"/>
        <circle cx="683.34" cy="327.38" r="49.41"/>
      </g>
    </g>
  </g>
</svg>